<svg width="28" height="28" viewBox="0 0 28 28" fill="none" xmlns="http://www.w3.org/2000/svg">
<g clip-path="url(#clip0_364_22989)">
<path d="M9.13492 23.3333C8.9377 23.8908 8.60247 24.3893 8.1605 24.7822C7.71853 25.1752 7.18424 25.4497 6.60745 25.5804C6.03067 25.711 5.4302 25.6934 4.86207 25.5292C4.29393 25.365 3.77665 25.0595 3.35848 24.6414C2.9403 24.2232 2.63487 23.7059 2.47067 23.1378C2.30647 22.5696 2.28885 21.9692 2.41947 21.3924C2.55009 20.8156 2.82467 20.2813 3.21762 19.8393C3.61056 19.3974 4.10905 19.0621 4.66658 18.8649V9.13492C4.10905 8.9377 3.61056 8.60247 3.21762 8.1605C2.82467 7.71853 2.55009 7.18424 2.41947 6.60745C2.28885 6.03067 2.30647 5.4302 2.47067 4.86207C2.63487 4.29393 2.9403 3.77665 3.35848 3.35848C3.77665 2.9403 4.29393 2.63487 4.86207 2.47067C5.4302 2.30647 6.03067 2.28885 6.60745 2.41947C7.18424 2.55009 7.71853 2.82467 8.1605 3.21762C8.60247 3.61056 8.9377 4.10905 9.13492 4.66658H18.8649C19.0621 4.10905 19.3974 3.61056 19.8393 3.21762C20.2813 2.82467 20.8156 2.55009 21.3924 2.41947C21.9692 2.28885 22.5696 2.30647 23.1378 2.47067C23.7059 2.63487 24.2232 2.9403 24.6414 3.35848C25.0595 3.77665 25.365 4.29393 25.5292 4.86207C25.6934 5.4302 25.711 6.03067 25.5804 6.60745C25.4497 7.18424 25.1752 7.71853 24.7822 8.1605C24.3893 8.60247 23.8908 8.9377 23.3333 9.13492V18.8649C23.8908 19.0621 24.3893 19.3974 24.7822 19.8393C25.1752 20.2813 25.4497 20.8156 25.5804 21.3924C25.711 21.9692 25.6934 22.5696 25.5292 23.1378C25.365 23.7059 25.0595 24.2232 24.6414 24.6414C24.2232 25.0595 23.7059 25.365 23.1378 25.5292C22.5696 25.6934 21.9692 25.711 21.3924 25.5804C20.8156 25.4497 20.2813 25.1752 19.8393 24.7822C19.3974 24.3893 19.0621 23.8908 18.8649 23.3333H9.13492ZM9.13492 20.9999H18.8649C19.0395 20.5076 19.3217 20.0604 19.6911 19.6911C20.0604 19.3217 20.5076 19.0395 20.9999 18.8649V9.13492C20.5076 8.96037 20.0604 8.67813 19.6911 8.30877C19.3217 7.9394 19.0395 7.49225 18.8649 6.99992H9.13492C8.96037 7.49225 8.67813 7.9394 8.30877 8.30877C7.9394 8.67813 7.49225 8.96037 6.99992 9.13492V18.8649C7.49225 19.0395 7.9394 19.3217 8.30877 19.6911C8.67813 20.0604 8.96037 20.5076 9.13492 20.9999ZM5.83325 6.99992C6.14267 6.99992 6.43941 6.877 6.65821 6.65821C6.877 6.43941 6.99992 6.14267 6.99992 5.83325C6.99992 5.52383 6.877 5.22708 6.65821 5.00829C6.43941 4.7895 6.14267 4.66658 5.83325 4.66658C5.52383 4.66658 5.22708 4.7895 5.00829 5.00829C4.7895 5.22708 4.66658 5.52383 4.66658 5.83325C4.66658 6.14267 4.7895 6.43941 5.00829 6.65821C5.22708 6.877 5.52383 6.99992 5.83325 6.99992ZM22.1666 6.99992C22.476 6.99992 22.7727 6.877 22.9915 6.65821C23.2103 6.43941 23.3333 6.14267 23.3333 5.83325C23.3333 5.52383 23.2103 5.22708 22.9915 5.00829C22.7727 4.7895 22.476 4.66658 22.1666 4.66658C21.8572 4.66658 21.5604 4.7895 21.3416 5.00829C21.1228 5.22708 20.9999 5.52383 20.9999 5.83325C20.9999 6.14267 21.1228 6.43941 21.3416 6.65821C21.5604 6.877 21.8572 6.99992 22.1666 6.99992ZM22.1666 23.3333C22.476 23.3333 22.7727 23.2103 22.9915 22.9915C23.2103 22.7727 23.3333 22.476 23.3333 22.1666C23.3333 21.8572 23.2103 21.5604 22.9915 21.3416C22.7727 21.1228 22.476 20.9999 22.1666 20.9999C21.8572 20.9999 21.5604 21.1228 21.3416 21.3416C21.1228 21.5604 20.9999 21.8572 20.9999 22.1666C20.9999 22.476 21.1228 22.7727 21.3416 22.9915C21.5604 23.2103 21.8572 23.3333 22.1666 23.3333ZM5.83325 23.3333C6.14267 23.3333 6.43941 23.2103 6.65821 22.9915C6.877 22.7727 6.99992 22.476 6.99992 22.1666C6.99992 21.8572 6.877 21.5604 6.65821 21.3416C6.43941 21.1228 6.14267 20.9999 5.83325 20.9999C5.52383 20.9999 5.22708 21.1228 5.00829 21.3416C4.7895 21.5604 4.66658 21.8572 4.66658 22.1666C4.66658 22.476 4.7895 22.7727 5.00829 22.9915C5.22708 23.2103 5.52383 23.3333 5.83325 23.3333Z" fill="#EEEEEE"/>
</g>
<defs>
<clipPath id="clip0_364_22989">
<rect width="28" height="28" fill="white"/>
</clipPath>
</defs>
</svg>
