<svg width="28" height="28" viewBox="0 0 28 28" fill="none" xmlns="http://www.w3.org/2000/svg">
<g clip-path="url(#clip0_364_22981)">
<path d="M13.9998 2.33337C14.3092 2.33337 14.6059 2.45629 14.8247 2.67508C15.0435 2.89388 15.1664 3.19062 15.1664 3.50004V7.00004C15.1664 7.30946 15.0435 7.60621 14.8247 7.825C14.6059 8.04379 14.3092 8.16671 13.9998 8.16671C13.6903 8.16671 13.3936 8.04379 13.1748 7.825C12.956 7.60621 12.8331 7.30946 12.8331 7.00004V3.50004C12.8331 3.19062 12.956 2.89388 13.1748 2.67508C13.3936 2.45629 13.6903 2.33337 13.9998 2.33337ZM13.9998 19.8334C14.3092 19.8334 14.6059 19.9563 14.8247 20.1751C15.0435 20.3939 15.1664 20.6906 15.1664 21V24.5C15.1664 24.8095 15.0435 25.1062 14.8247 25.325C14.6059 25.5438 14.3092 25.6667 13.9998 25.6667C13.6903 25.6667 13.3936 25.5438 13.1748 25.325C12.956 25.1062 12.8331 24.8095 12.8331 24.5V21C12.8331 20.6906 12.956 20.3939 13.1748 20.1751C13.3936 19.9563 13.6903 19.8334 13.9998 19.8334ZM24.1031 8.16671C24.2578 8.43467 24.2997 8.7531 24.2197 9.05197C24.1396 9.35084 23.9441 9.60566 23.6761 9.76037L20.6451 11.5104C20.5124 11.5882 20.3656 11.639 20.2131 11.6598C20.0607 11.6807 19.9056 11.6712 19.7569 11.6318C19.6081 11.5925 19.4686 11.5241 19.3464 11.4307C19.2242 11.3372 19.1216 11.2205 19.0447 11.0873C18.9678 10.954 18.918 10.8069 18.8981 10.6543C18.8783 10.5017 18.8888 10.3467 18.9292 10.1982C18.9695 10.0497 19.0388 9.9107 19.133 9.7891C19.2273 9.66751 19.3447 9.56575 19.4784 9.48971L22.5094 7.73971C22.7774 7.585 23.0958 7.54308 23.3947 7.62316C23.6936 7.70324 23.9484 7.89876 24.1031 8.16671ZM8.9481 16.9167C9.1028 17.1847 9.14473 17.5031 9.06465 17.802C8.98457 18.1008 8.78905 18.3557 8.5211 18.5104L5.4901 20.2604C5.35737 20.3382 5.21055 20.389 5.05811 20.4098C4.90567 20.4307 4.75061 20.4212 4.60186 20.3818C4.45311 20.3425 4.31361 20.2741 4.19139 20.1807C4.06917 20.0872 3.96664 19.9705 3.88971 19.8373C3.81278 19.704 3.76296 19.5569 3.74313 19.4043C3.7233 19.2517 3.73384 19.0967 3.77416 18.9482C3.81447 18.7997 3.88375 18.6607 3.97802 18.5391C4.07229 18.4175 4.18968 18.3158 4.32343 18.2397L7.35443 16.4897C7.62239 16.335 7.94083 16.2931 8.2397 16.3732C8.53857 16.4532 8.79339 16.6488 8.9481 16.9167ZM24.1031 19.8334C23.9484 20.1013 23.6936 20.2968 23.3947 20.3769C23.0958 20.457 22.7774 20.4151 22.5094 20.2604L19.4784 18.5104C19.2127 18.3546 19.0193 18.1 18.9406 17.8021C18.8618 17.5043 18.9041 17.1874 19.0581 16.9206C19.2122 16.6538 19.4655 16.4587 19.7628 16.378C20.0601 16.2973 20.3773 16.3374 20.6451 16.4897L23.6761 18.2397C23.9441 18.3944 24.1396 18.6492 24.2197 18.9481C24.2997 19.247 24.2578 19.5654 24.1031 19.8334ZM8.9481 11.0834C8.79339 11.3513 8.53857 11.5468 8.2397 11.6269C7.94083 11.707 7.62239 11.6651 7.35443 11.5104L4.32343 9.76037C4.18968 9.68433 4.07229 9.58258 3.97802 9.46098C3.88375 9.33938 3.81447 9.20033 3.77416 9.05185C3.73384 8.90336 3.7233 8.74837 3.74313 8.59579C3.76296 8.44322 3.81278 8.29607 3.88971 8.16283C3.96664 8.02958 4.06917 7.91287 4.19139 7.81941C4.31361 7.72595 4.45311 7.65759 4.60186 7.61826C4.75061 7.57893 4.90567 7.56942 5.05811 7.59026C5.21055 7.6111 5.35737 7.66189 5.4901 7.73971L8.5211 9.48971C8.78905 9.64442 8.98457 9.89924 9.06465 10.1981C9.14473 10.497 9.1028 10.8154 8.9481 11.0834Z" fill="#EEEEEE"/>
</g>
<defs>
<clipPath id="clip0_364_22981">
<rect width="28" height="28" fill="white"/>
</clipPath>
</defs>
</svg>
