<svg width="28" height="28" viewBox="0 0 28 28" fill="none" xmlns="http://www.w3.org/2000/svg">
<g clip-path="url(#clip0_364_22997)">
<path d="M5.83317 10.4999C6.14259 10.4999 6.43934 10.6228 6.65813 10.8416C6.87692 11.0604 6.99984 11.3572 6.99984 11.6666C8.83284 11.6639 10.613 12.2806 12.0515 13.4166H14.5832C16.1372 13.4166 17.5348 14.0921 18.495 15.1654L22.1665 15.1666C23.2693 15.1663 24.3496 15.4786 25.2821 16.0673C26.2146 16.656 26.9612 17.497 27.4352 18.4927C24.676 22.1339 20.2088 24.4999 15.1665 24.4999C11.9115 24.4999 9.15817 23.7964 6.92984 22.5656C6.84822 22.7908 6.69912 22.9854 6.50286 23.1228C6.3066 23.2602 6.07274 23.3336 5.83317 23.3332H2.33317C2.02375 23.3332 1.72701 23.2103 1.50821 22.9915C1.28942 22.7727 1.1665 22.476 1.1665 22.1666V11.6666C1.1665 11.3572 1.28942 11.0604 1.50821 10.8416C1.72701 10.6228 2.02375 10.4999 2.33317 10.4999H5.83317ZM7.001 13.9999L6.99984 19.8577L7.05234 19.8962C9.1465 21.3662 11.8742 22.1666 15.1665 22.1666C18.6712 22.1666 21.932 20.8179 24.3073 18.5149L24.4625 18.3597L24.3225 18.2431C23.7716 17.8116 23.1038 17.5555 22.4057 17.5081L22.1665 17.4999L19.7025 17.4987C19.7877 17.8744 19.8332 18.2652 19.8332 18.6666V19.8332H9.33317V17.4999L17.2548 17.4987L17.2152 17.4077C16.9916 16.9405 16.6477 16.5413 16.2187 16.2509C15.7898 15.9606 15.2913 15.7897 14.7745 15.7557L14.5832 15.7499H11.1648C10.6227 15.1954 9.97515 14.755 9.26028 14.4544C8.54541 14.1539 7.77765 13.9993 7.00217 13.9999H7.001ZM4.6665 12.8332H3.49984V20.9999H4.6665V12.8332ZM15.9202 4.17074L16.3332 4.58491L16.7462 4.17191C17.0166 3.89916 17.3383 3.68252 17.6927 3.53442C18.0471 3.38632 18.4272 3.30967 18.8113 3.30889C19.1954 3.3081 19.5759 3.38319 19.9309 3.52984C20.2859 3.67649 20.6084 3.89181 20.88 4.16345C21.1515 4.43508 21.3668 4.75768 21.5133 5.11272C21.6599 5.46776 21.7348 5.84825 21.7339 6.23234C21.733 6.61644 21.6563 6.99658 21.5081 7.35093C21.3599 7.70528 21.1432 8.02687 20.8703 8.29724L16.3332 12.8332L11.7948 8.29491C11.5221 8.02446 11.3055 7.70281 11.1573 7.34841C11.0092 6.99402 10.9326 6.61386 10.9318 6.22977C10.931 5.84567 11.0061 5.4652 11.1528 5.1102C11.2994 4.75521 11.5147 4.43267 11.7864 4.16111C12.058 3.88955 12.3806 3.67432 12.7356 3.52777C13.0907 3.38122 13.4712 3.30624 13.8553 3.30714C14.2394 3.30803 14.6195 3.38478 14.9739 3.53298C15.3282 3.68119 15.6498 3.89792 15.9202 4.17074ZM13.4468 5.82157C13.3501 5.91773 13.2902 6.04473 13.2774 6.1805C13.2646 6.31626 13.2998 6.45222 13.3768 6.56474L13.4445 6.64524L16.3332 9.53157L19.2218 6.64524C19.3185 6.54872 19.3782 6.42135 19.3905 6.28533C19.4029 6.14932 19.3671 6.01327 19.2895 5.90091L19.2218 5.81924C19.1252 5.72279 18.9977 5.6633 18.8617 5.65115C18.7257 5.639 18.5897 5.67495 18.4775 5.75274L18.3958 5.82041L16.332 7.88307L14.2705 5.81807L14.1912 5.75274C14.0788 5.6751 13.9428 5.63934 13.8067 5.65171C13.6707 5.66407 13.5434 5.72377 13.4468 5.82041V5.82157Z" fill="#EEEEEE"/>
</g>
<defs>
<clipPath id="clip0_364_22997">
<rect width="28" height="28" fill="white"/>
</clipPath>
</defs>
</svg>
