<svg width="28" height="28" viewBox="0 0 28 28" fill="none" xmlns="http://www.w3.org/2000/svg">
<g clip-path="url(#clip0_364_22993)">
<path d="M19.8332 24.5001H8.16652C6.51362 24.5012 4.91368 23.9173 3.64999 22.8518C2.3863 21.7864 1.5404 20.3081 1.26208 18.6788C0.983751 17.0495 1.29095 15.3743 2.12929 13.9498C2.96763 12.5253 4.28301 11.4433 5.84252 10.8956C5.78969 9.79155 5.96153 8.68826 6.34764 7.65256C6.73375 6.61686 7.32608 5.67032 8.08876 4.87028C8.85143 4.07023 9.76858 3.43334 10.7846 2.99817C11.8007 2.563 12.8945 2.33862 13.9999 2.33862C15.1052 2.33862 16.199 2.563 17.2151 2.99817C18.2311 3.43334 19.1483 4.07023 19.9109 4.87028C20.6736 5.67032 21.266 6.61686 21.6521 7.65256C22.0382 8.68826 22.21 9.79155 22.1572 10.8956C23.7167 11.4433 25.0321 12.5253 25.8704 13.9498C26.7088 15.3743 27.016 17.0495 26.7376 18.6788C26.4593 20.3081 25.6134 21.7864 24.3497 22.8518C23.086 23.9173 21.4861 24.5012 19.8332 24.5001ZM19.8332 10.5001C19.8335 9.72196 19.6781 8.9516 19.3761 8.23441C19.0742 7.51723 18.6318 6.8677 18.075 6.32408C17.5182 5.78046 16.8583 5.35374 16.1341 5.06904C15.4098 4.78434 14.636 4.64741 13.8581 4.66633C13.0801 4.68524 12.3138 4.85962 11.6043 5.17918C10.8948 5.49874 10.2564 5.95703 9.72669 6.52707C9.19698 7.0971 8.78667 7.76736 8.51993 8.49838C8.25319 9.22939 8.13541 10.0064 8.17352 10.7836L8.25519 12.5196L6.61719 13.096C5.57944 13.463 4.70473 14.1848 4.14747 15.134C3.59021 16.0833 3.38623 17.1989 3.57156 18.2839C3.75688 19.3689 4.31959 20.3536 5.16033 21.064C6.00108 21.7745 7.06579 22.165 8.16652 22.1668H19.8332C20.6922 22.1665 21.5346 21.9291 22.2673 21.4807C23.0001 21.0324 23.5949 20.3904 23.9862 19.6256C24.3775 18.8609 24.55 18.0029 24.4849 17.1463C24.4198 16.2897 24.1195 15.4677 23.6171 14.7709C23.1147 14.0741 22.4296 13.5294 21.6375 13.197C20.8454 12.8646 19.9768 12.7573 19.1276 12.8869C18.2784 13.0165 17.4814 13.378 16.8245 13.9316C16.1676 14.4851 15.6762 15.2093 15.4045 16.0243L13.1902 15.2858C13.6555 13.8921 14.5474 12.68 15.7395 11.8211C16.9317 10.9623 18.3638 10.5001 19.8332 10.5001Z" fill="#EEEEEE"/>
</g>
<defs>
<clipPath id="clip0_364_22993">
<rect width="28" height="28" fill="white"/>
</clipPath>
</defs>
</svg>
