<svg xmlns="http://www.w3.org/2000/svg" xmlns:xlink="http://www.w3.org/1999/xlink" xml:space="preserve" width="140" height="70" style="shape-rendering:geometricPrecision;text-rendering:geometricPrecision;image-rendering:optimizeQuality;fill-rule:evenodd;clip-rule:evenodd" version="1.1" viewBox="0 0 140 70"><defs><clipPath id="id0"><path d="M119.44 18.01h20.73v15.24h-20.73z"/></clipPath><style type="text/css">.fil0{fill:none}.fil1,.fil2,.fil3{fill:#2879c9;fill-rule:nonzero}.fil1,.fil2{fill:#666}.fil1{fill:#b0cb1f}</style></defs><g id="Layer_x0020_1"><g id="_2601076186960"><path d="M0 0h140v70H0z" class="fil0"/><g><path d="M2.16 2.74h134.66V70H2.16z" class="fil0"/><path d="M42.78 22.21c1.08 0 2 .92 2 2.05 0 1.07-.92 1.99-2 1.99-1.12 0-2.05-.92-2.05-1.99 0-1.13.93-2.05 2.05-2.05zM44.37 30.97v11.47h-3.64v-14.5h1.03c1.43 0 2.61 1.18 2.61 2.62v.41zM47.39 14.98c1.9 0 3.49 1.59 3.49 3.49 0 1.89-1.59 3.43-3.49 3.43-1.89 0-3.43-1.54-3.43-3.43 0-1.9 1.54-3.49 3.43-3.49z" class="fil1"/><path d="M70.6 56.22c.36 0 .61-.16.77-.31l-.21-.46c-.05.1-.26.21-.41.21-.31 0-.41-.26-.41-.57v-2.51h.82v-.56h-.82v-1.08h-.66v1.08h-.67v.56h.67v2.67c0 .61.3.97.92.97z" class="fil2"/><path id="_1" d="M75.41 56.12v-2.87c0-.92-.41-1.33-1.28-1.33-.61 0-1.18.35-1.43.71v-2.15h-.67v5.64h.67v-2.97c.2-.36.71-.67 1.18-.67.56 0 .92.2.92.92v2.72h.61z" class="fil2"/><path id="_2" d="M77 51.46c.26 0 .41-.21.41-.41 0-.26-.15-.47-.41-.47-.2 0-.41.21-.41.47 0 .2.21.41.41.41zm.31 4.66v-4.1h-.62v4.1h.62z" class="fil2"/><path id="_3" d="M81.97 56.12v-2.87c0-.87-.46-1.33-1.28-1.33-.62 0-1.18.35-1.49.71v-.61h-.61v4.1h.61v-2.97c.26-.36.72-.67 1.23-.67.56 0 .92.26.92.97v2.67h.62z" class="fil2"/><path id="_4" d="m86.78 56.12-1.79-2.26 1.79-1.84h-.77l-2.15 2.15v-3.69h-.61v5.64h.61v-1.18l.67-.67 1.48 1.85z" class="fil2"/><path id="_5" d="M87.86 51.46c.25 0 .46-.21.46-.41 0-.26-.21-.47-.46-.47-.21 0-.41.21-.41.47 0 .2.2.41.41.41zm.31 4.66v-4.1h-.62v4.1h.62z" class="fil2"/><path id="_6" d="M92.83 56.12v-2.87c0-.87-.46-1.33-1.28-1.33-.62 0-1.18.35-1.49.71v-.61h-.61v4.1h.61v-2.97c.26-.36.72-.67 1.23-.67.56 0 .92.26.92.97v2.67h.62z" class="fil2"/><path id="_7" d="M95.75 57.76c.97 0 1.89-.41 1.89-1.8v-3.94h-.61v.61c-.31-.41-.82-.71-1.38-.71-1.03 0-1.8.82-1.8 2.15 0 1.28.77 2.1 1.8 2.1.61 0 1.07-.31 1.38-.77v.61c0 .87-.62 1.23-1.28 1.23-.62 0-1.03-.15-1.33-.56l-.36.46c.51.46.97.62 1.69.62zm.05-2.16c-.82 0-1.28-.66-1.28-1.53 0-.92.46-1.59 1.28-1.59.51 0 1.02.31 1.23.67v1.79c-.21.36-.72.66-1.23.66z" class="fil2"/><path id="_8" d="M102.92 56.22c.66 0 1.23-.26 1.64-.67l-.31-.41c-.31.36-.82.52-1.28.52-.87 0-1.38-.62-1.44-1.39h3.28v-.15c0-1.23-.71-2.2-1.94-2.2-1.18 0-2 .97-2 2.15 0 1.28.87 2.15 2.05 2.15zm1.28-2.41h-2.66c0-.61.46-1.38 1.33-1.38.92 0 1.33.77 1.33 1.38z" class="fil2"/><path id="_9" d="m107.63 56.12 1.69-4.1h-.72l-1.33 3.33-1.38-3.33h-.67l1.69 4.1z" class="fil2"/><path id="_10" d="M111.78 56.22c.67 0 1.23-.26 1.64-.67l-.31-.41c-.31.36-.77.52-1.23.52-.92 0-1.43-.62-1.48-1.39h3.28v-.15c0-1.23-.72-2.2-1.95-2.2-1.18 0-2 .97-2 2.15 0 1.28.87 2.15 2.05 2.15zm1.28-2.41h-2.66c.05-.61.46-1.38 1.33-1.38.92 0 1.33.77 1.33 1.38z" class="fil2"/><path id="_11" d="M115.31 56.12V53.2c.21-.31.72-.62 1.13-.62h.26v-.61c-.57 0-1.03.3-1.39.71v-.66h-.61v4.1h.61z" class="fil2"/><path id="_12" d="M117.26 57.7c.1 0 .31.06.46.06.56 0 .97-.26 1.18-.82l2.05-4.92h-.67l-1.38 3.33-1.33-3.33h-.67l1.69 4.1-.25.61c-.16.36-.36.46-.62.46-.1 0-.25-.05-.36-.05l-.1.56z" class="fil2"/><path id="_13" d="M124.43 54.99v-1.84c.21-.36.72-.67 1.18-.67.82 0 1.33.67 1.33 1.59s-.51 1.59-1.33 1.59c-.46 0-.97-.31-1.18-.67zm0 1.13v-.62c.31.41.77.72 1.33.72 1.08 0 1.85-.82 1.85-2.15 0-1.28-.77-2.15-1.85-2.15-.51 0-1.02.3-1.33.71v-2.15h-.66v5.64h.66z" class="fil2"/><path id="_14" d="M128.94 51.46c.26 0 .41-.21.41-.41 0-.26-.15-.47-.41-.47-.21 0-.41.21-.41.47 0 .2.2.41.41.41zm.31 4.66v-4.1h-.62v4.1h.62z" class="fil2"/><path id="_15" d="M131.55 56.22c.36 0 .62-.16.77-.31l-.2-.46c-.11.1-.26.21-.41.21-.31 0-.41-.26-.41-.57v-2.51h.82v-.56h-.82v-1.08h-.67v1.08h-.67v.56h.67v2.67c0 .61.31.97.92.97z" class="fil2"/><path d="M82.43 22.21a1.944 1.944 0 1 1 0 3.89 1.946 1.946 0 1 1 0-3.89zm40.11 11.73h6.19v-.11c0-1.99-1.02-3.02-3.02-3.02-1.94 0-3.02 1.03-3.17 3.13zm3.17-6c4.41 0 6.61 2.26 6.61 6.76 0 .57-.05 1.18-.15 1.8h-9.63c0 2.05 1.48 3.07 4.5 3.07.41 0 .87-.05 1.29-.05h.87c1.17 0 2.15.82 2.25 1.95v.56c-1.28.31-2.82.41-4.66.41-5.28 0-7.89-2.46-7.89-7.43 0-4.71 2.25-7.07 6.81-7.07zM51.13 30.1c.92-.98 1.95-1.59 3.08-1.9a5.93 5.93 0 0 1 1.69-.26c3.43 0 5.17 1.8 5.17 5.38v9.12h-3.69v-9.12c0-1.38-.56-2.15-1.69-2.35H55.54l-.05-.06H54.46l-.05.06h-.2c-.06 0-.11.05-.16.05h-.1l-.05.05H53.75l-.06.05h-.1c-.05 0-.05.05-.1.05-.67.21-1.33.62-2 1.18v10.09h-3.64v-14.5h.88c1.28 0 2.25 1.03 2.25 2.26v.05l.15-.15zm50.05.87v11.47h-3.64v-14.5h1.02c1.44 0 2.62 1.18 2.62 2.62v.41zm-79.35-5.64v.62H16.1v16.49h-3.69V25.95H9.28c-1.43-.06-2.61-1.23-2.61-2.67v-.56H19.22c1.44 0 2.61 1.18 2.61 2.61zm65.67.26h.92c1.23 0 2.26 1.02 2.26 2.25v.1h1.12c1.44 0 2.62 1.18 2.62 2.62v.3h-3.23v6.66c0 1.28.51 2 1.59 2.05h.15c1.28.05 2.36 1.18 2.36 2.51v.36h-4.15c-2.41 0-3.64-1.28-3.64-3.89V25.59zm-3.23 5.38v11.47h-3.68v-14.5h1.02c1.49 0 2.66 1.18 2.66 2.62v.41zm-16.13-5.13c0-1.43-1.18-2.61-2.61-2.61H64.5v19.21h3.69v-7.22l5.84 7.22h4.46l-5.84-7.22 5.84-7.28h-4.46l-5.84 7.28-.05-9.38zm-44.05 16.6V22.67v.05h1.02c1.44 0 2.61 1.18 2.61 2.61v4.46c1.18-1.23 2.62-1.85 4.41-1.85 3.43 0 5.12 1.8 5.12 5.38v9.12h-3.64v-9.12c0-1.64-.82-2.41-2.4-2.41-1.18 0-2.36.47-3.49 1.44v10.09h-3.63zm78.83-14.5h1.07c1.44 0 3.18 1.08 3.69 2.62l2.61 7.53 2.62-7.43c.51-1.49 2.46-2.72 3.89-2.72h1.02l-5.89 14.5h-3.48l-5.53-14.5zm-3.54-5.73a1.944 1.944 0 1 1 0 3.89c-1.07 0-1.94-.87-1.94-1.95 0-1.07.87-1.94 1.94-1.94z" class="fil3"/></g><g style="clip-path:url(#id0)"><image xlink:href="thinkitive-dark-logo-v-12_Images\thinkitive-dark-logo-v-12_ImgID1.png" width="20.74" height="15.24" x="119.44" y="18.01"/></g></g></g></svg>